<?xml version="1.0" encoding="UTF-8"?>
<svg id="_Слой_2" data-name="Слой 2" xmlns="http://www.w3.org/2000/svg" viewBox="0 0 276.07 101.89">
  <defs>
    <style>
      .cls-1 {
        stroke: #1d1e1b;
        stroke-miterlimit: 10;
      }
    </style>
  </defs>
  <g id="_Слой_1-2" data-name="Слой 1">
    <g>
      <polygon points="49.21 41.48 70.47 1.66 91.63 1.66 91.63 69.31 78.68 69.31 78.68 26.5 79.07 9.68 53.56 57.23 38.67 57.23 13.26 9.68 13.64 26.5 13.64 69.31 .69 69.31 .69 1.66 21.86 1.66 43.12 41.48 46.16 48.38 49.21 41.48"/>
      <polygon class="cls-1" points="49.21 41.48 70.47 1.66 91.63 1.66 91.63 69.31 78.68 69.31 78.68 26.5 79.07 9.68 53.56 57.23 38.67 57.23 13.26 9.68 13.64 26.5 13.64 69.31 .69 69.31 .69 1.66 21.86 1.66 43.12 41.48 46.16 48.38 49.21 41.48"/>
      <path d="M135.6,1.66l-33.63,67.65h14.21l6.03-12.47h42.54l6.03,12.47h14.21L151.36,1.66h-15.75ZM147.59,21.37l12.07,24.93h-32.34l12.07-24.93,4.11-7.56,4.11,7.56Z"/>
      <path class="cls-1" d="M135.6,1.66l-33.63,67.65h14.21l6.03-12.47h42.54l6.03,12.47h14.21L151.36,1.66h-15.75ZM147.59,21.37l12.07,24.93h-32.34l12.07-24.93,4.11-7.56,4.11,7.56Z"/>
      <g>
        <path d="M275.44,69.31v-34.31h-50.35v9.08h35.55c-.52,1.32-1.2,2.66-2.06,4.01-2.16,3.38-5.48,6.2-9.95,8.46-4.48,2.26-10.07,3.38-16.77,3.38s-11.94-1.05-16.48-3.14c-4.54-2.09-7.97-4.99-10.29-8.7-2.32-3.7-3.48-7.91-3.48-12.61s1.16-8.66,3.48-12.27c2.32-3.61,5.75-6.46,10.29-8.55,4.54-2.09,9.97-3.14,16.28-3.14,5.8,0,10.79.74,14.98,2.22,4.19,1.48,7.54,3.5,10.05,6.04,2.51,2.55,4.28,5.43,5.32,8.65h13.43c-1.16-5.28-3.5-10.04-7.01-14.26-3.51-4.22-8.34-7.55-14.5-10-6.15-2.45-13.58-3.67-22.28-3.67s-16.9,1.52-23.43,4.54c-6.54,3.03-11.5,7.2-14.88,12.52-3.38,5.31-5.07,11.29-5.07,17.93s1.64,12.6,4.93,17.88c3.29,5.28,8.04,9.46,14.26,12.51,6.22,3.06,13.51,4.59,21.89,4.59,6.38,0,11.85-.87,16.43-2.61,4.57-1.74,8.2-3.91,10.87-6.52,2.67-2.61,4.69-5.39,6.04-8.36h1.35v16.33h11.4Z"/>
        <path class="cls-1" d="M275.44,69.31v-34.31h-50.35v9.08h35.55c-.52,1.32-1.2,2.66-2.06,4.01-2.16,3.38-5.48,6.2-9.95,8.46-4.48,2.26-10.07,3.38-16.77,3.38s-11.94-1.05-16.48-3.14c-4.54-2.09-7.97-4.99-10.29-8.7-2.32-3.7-3.48-7.91-3.48-12.61s1.16-8.66,3.48-12.27c2.32-3.61,5.75-6.46,10.29-8.55,4.54-2.09,9.97-3.14,16.28-3.14,5.8,0,10.79.74,14.98,2.22,4.19,1.48,7.54,3.5,10.05,6.04,2.51,2.55,4.28,5.43,5.32,8.65h13.43c-1.16-5.28-3.5-10.04-7.01-14.26-3.51-4.22-8.34-7.55-14.5-10-6.15-2.45-13.58-3.67-22.28-3.67s-16.9,1.52-23.43,4.54c-6.54,3.03-11.5,7.2-14.88,12.52-3.38,5.31-5.07,11.29-5.07,17.93s1.64,12.6,4.93,17.88c3.29,5.28,8.04,9.46,14.26,12.51,6.22,3.06,13.51,4.59,21.89,4.59,6.38,0,11.85-.87,16.43-2.61,4.57-1.74,8.2-3.91,10.87-6.52,2.67-2.61,4.69-5.39,6.04-8.36h1.35v16.33h11.4Z"/>
        <path d="M5.51,94.91c-2.51-.52-3.08-1.13-3.08-2.21v-.03c0-1.04.92-1.83,2.42-1.83,1.17,0,2.22.37,3.27,1.23l.75-.99c-1.17-.92-2.32-1.39-3.99-1.39-2.16,0-3.73,1.33-3.73,3.1v.03c0,1.86,1.2,2.71,3.81,3.27,2.38.52,2.95,1.1,2.95,2.16v.03c0,1.12-.99,1.93-2.53,1.93s-2.71-.52-3.89-1.6l-.79.94c1.36,1.23,2.82,1.82,4.64,1.82,2.25,0,3.87-1.26,3.87-3.21v-.03c0-1.74-1.17-2.64-3.7-3.21"/>
        <path class="cls-1" d="M5.51,94.91c-2.51-.52-3.08-1.13-3.08-2.21v-.03c0-1.04.92-1.83,2.42-1.83,1.17,0,2.22.37,3.27,1.23l.75-.99c-1.17-.92-2.32-1.39-3.99-1.39-2.16,0-3.73,1.33-3.73,3.1v.03c0,1.86,1.2,2.71,3.81,3.27,2.38.52,2.95,1.1,2.95,2.16v.03c0,1.12-.99,1.93-2.53,1.93s-2.71-.52-3.89-1.6l-.79.94c1.36,1.23,2.82,1.82,4.64,1.82,2.25,0,3.87-1.26,3.87-3.21v-.03c0-1.74-1.17-2.64-3.7-3.21Z"/>
        <polygon points="54.25 91.03 58.07 91.03 58.07 101.2 59.35 101.2 59.35 91.03 63.18 91.03 63.18 89.85 54.25 89.85 54.25 91.03"/>
        <polygon class="cls-1" points="54.25 91.03 58.07 91.03 58.07 101.2 59.35 101.2 59.35 91.03 63.18 91.03 63.18 89.85 54.25 89.85 54.25 91.03"/>
        <path d="M116.26,96.45c0,2.48-1.33,3.74-3.42,3.74s-3.47-1.36-3.47-3.83v-6.52h-1.28v6.6c0,3.21,1.91,4.93,4.72,4.93s4.73-1.7,4.73-5.02v-6.5h-1.28v6.6Z"/>
        <path class="cls-1" d="M116.26,96.45c0,2.48-1.33,3.74-3.42,3.74s-3.47-1.36-3.47-3.83v-6.52h-1.28v6.6c0,3.21,1.91,4.93,4.72,4.93s4.73-1.7,4.73-5.02v-6.5h-1.28v6.6Z"/>
        <path d="M166.47,89.85h-3.94v11.35h3.94c3.57,0,6.03-2.48,6.03-5.67v-.03c0-3.19-2.46-5.64-6.03-5.64M171.17,95.56c0,2.53-1.83,4.46-4.7,4.46h-2.66v-8.98h2.66c2.87,0,4.7,1.98,4.7,4.49v.03Z"/>
        <path class="cls-1" d="M166.47,89.85h-3.94v11.35h3.94c3.57,0,6.03-2.48,6.03-5.67v-.03c0-3.19-2.46-5.64-6.03-5.64ZM171.17,95.56c0,2.53-1.83,4.46-4.7,4.46h-2.66v-8.98h2.66c2.87,0,4.7,1.98,4.7,4.49v.03Z"/>
        <rect x="217.55" y="89.85" width="1.28" height="11.35"/>
        <rect class="cls-1" x="217.55" y="89.85" width="1.28" height="11.35"/>
        <path d="M269.67,89.66c-3.45,0-5.8,2.74-5.8,5.87v.03c0,3.13,2.32,5.84,5.77,5.84s5.8-2.74,5.8-5.87v-.03c0-3.13-2.32-5.84-5.77-5.84M274.11,95.56c0,2.58-1.85,4.65-4.44,4.65s-4.47-2.11-4.47-4.68v-.03c0-2.58,1.85-4.65,4.44-4.65s4.47,2.11,4.47,4.69v.03Z"/>
        <path class="cls-1" d="M269.67,89.66c-3.45,0-5.8,2.74-5.8,5.87v.03c0,3.13,2.32,5.84,5.77,5.84s5.8-2.74,5.8-5.87v-.03c0-3.13-2.32-5.84-5.77-5.84ZM274.11,95.56c0,2.58-1.85,4.65-4.44,4.65s-4.47-2.11-4.47-4.68v-.03c0-2.58,1.85-4.65,4.44-4.65s4.47,2.11,4.47,4.69v.03Z"/>
      </g>
    </g>
  </g>
</svg>